<svg width="497" height="171" viewBox="0 0 497 171" fill="none" xmlns="http://www.w3.org/2000/svg">
<rect x="7.5" y="149.5" width="489" height="2" rx="1" fill="#F9F9F9" stroke="white"/>
<path d="M29.25 104.125V138H18.75V48.375H43.375C52.9583 48.375 60.375 50.7083 65.625 55.375C70.9167 60.0417 73.5625 66.625 73.5625 75.125C73.5625 83.625 70.625 90.5833 64.75 96C58.9167 101.417 51.0208 104.125 41.0625 104.125H29.25ZM29.25 57.875V94.625H40.25C47.5 94.625 53.0208 92.9792 56.8125 89.6875C60.6458 86.3542 62.5625 81.6667 62.5625 75.625C62.5625 63.7917 55.5625 57.875 41.5625 57.875H29.25ZM111.125 139.5C101.667 139.5 94.1042 136.521 88.4375 130.562C82.8125 124.562 80 116.625 80 106.75C80 96 82.9375 87.6042 88.8125 81.5625C94.6875 75.5208 102.625 72.5 112.625 72.5C122.167 72.5 129.604 75.4375 134.938 81.3125C140.312 87.1875 143 95.3333 143 105.75C143 115.958 140.104 124.146 134.312 130.312C128.562 136.438 120.833 139.5 111.125 139.5ZM111.875 81.125C105.292 81.125 100.083 83.375 96.25 87.875C92.4167 92.3333 90.5 98.5 90.5 106.375C90.5 113.958 92.4375 119.938 96.3125 124.312C100.188 128.688 105.375 130.875 111.875 130.875C118.5 130.875 123.583 128.729 127.125 124.438C130.708 120.146 132.5 114.042 132.5 106.125C132.5 98.125 130.708 91.9583 127.125 87.625C123.583 83.2917 118.5 81.125 111.875 81.125ZM169.625 138H159.375V43.25H169.625V138ZM241.312 74L211.875 148.25C206.625 161.5 199.25 168.125 189.75 168.125C187.083 168.125 184.854 167.854 183.062 167.312V158.125C185.271 158.875 187.292 159.25 189.125 159.25C194.292 159.25 198.167 156.167 200.75 150L205.875 137.875L180.875 74H192.25L209.562 123.25C209.771 123.875 210.208 125.5 210.875 128.125H211.25C211.458 127.125 211.875 125.542 212.5 123.375L230.688 74H241.312ZM305.5 138H291.125L262.875 107.25H262.625V138H252.375V43.25H262.625V103.312H262.875L289.75 74H303.188L273.5 104.875L305.5 138ZM367.438 108.562H322.25C322.417 115.688 324.333 121.188 328 125.062C331.667 128.938 336.708 130.875 343.125 130.875C350.333 130.875 356.958 128.5 363 123.75V133.375C357.375 137.458 349.938 139.5 340.688 139.5C331.646 139.5 324.542 136.604 319.375 130.812C314.208 124.979 311.625 116.792 311.625 106.25C311.625 96.2917 314.438 88.1875 320.062 81.9375C325.729 75.6458 332.75 72.5 341.125 72.5C349.5 72.5 355.979 75.2083 360.562 80.625C365.146 86.0417 367.438 93.5625 367.438 103.188V108.562ZM356.938 99.875C356.896 93.9583 355.458 89.3542 352.625 86.0625C349.833 82.7708 345.938 81.125 340.938 81.125C336.104 81.125 332 82.8542 328.625 86.3125C325.25 89.7708 323.167 94.2917 322.375 99.875H356.938ZM433.938 74L404.5 148.25C399.25 161.5 391.875 168.125 382.375 168.125C379.708 168.125 377.479 167.854 375.688 167.312V158.125C377.896 158.875 379.917 159.25 381.75 159.25C386.917 159.25 390.792 156.167 393.375 150L398.5 137.875L373.5 74H384.875L402.188 123.25C402.396 123.875 402.833 125.5 403.5 128.125H403.875C404.083 127.125 404.5 125.542 405.125 123.375L423.312 74H433.938Z" fill="white"/>
<path d="M25.25 106.653V140.528H14.75V50.9028H39.375C48.9583 50.9028 56.375 53.2362 61.625 57.9028C66.9167 62.5695 69.5625 69.1528 69.5625 77.6528C69.5625 86.1528 66.625 93.1112 60.75 98.5278C54.9167 103.944 47.0208 106.653 37.0625 106.653H25.25ZM25.25 60.4028V97.1528H36.25C43.5 97.1528 49.0208 95.507 52.8125 92.2153C56.6458 88.882 58.5625 84.1945 58.5625 78.1528C58.5625 66.3195 51.5625 60.4028 37.5625 60.4028H25.25ZM107.125 142.028C97.6667 142.028 90.1042 139.049 84.4375 133.09C78.8125 127.09 76 119.153 76 109.278C76 98.5278 78.9375 90.132 84.8125 84.0903C90.6875 78.0487 98.625 75.0278 108.625 75.0278C118.167 75.0278 125.604 77.9653 130.938 83.8403C136.312 89.7153 139 97.8612 139 108.278C139 118.486 136.104 126.674 130.312 132.84C124.562 138.965 116.833 142.028 107.125 142.028ZM107.875 83.6528C101.292 83.6528 96.0833 85.9028 92.25 90.4028C88.4167 94.8612 86.5 101.028 86.5 108.903C86.5 116.486 88.4375 122.465 92.3125 126.84C96.1875 131.215 101.375 133.403 107.875 133.403C114.5 133.403 119.583 131.257 123.125 126.965C126.708 122.674 128.5 116.569 128.5 108.653C128.5 100.653 126.708 94.4862 123.125 90.1528C119.583 85.8195 114.5 83.6528 107.875 83.6528ZM165.625 140.528H155.375V45.7778H165.625V140.528ZM237.312 76.5278L207.875 150.778C202.625 164.028 195.25 170.653 185.75 170.653C183.083 170.653 180.854 170.382 179.062 169.84V160.653C181.271 161.403 183.292 161.778 185.125 161.778C190.292 161.778 194.167 158.694 196.75 152.528L201.875 140.403L176.875 76.5278H188.25L205.562 125.778C205.771 126.403 206.208 128.028 206.875 130.653H207.25C207.458 129.653 207.875 128.069 208.5 125.903L226.688 76.5278H237.312ZM301.5 140.528H287.125L258.875 109.778H258.625V140.528H248.375V45.7778H258.625V105.84H258.875L285.75 76.5278H299.188L269.5 107.403L301.5 140.528ZM363.438 111.09H318.25C318.417 118.215 320.333 123.715 324 127.59C327.667 131.465 332.708 133.403 339.125 133.403C346.333 133.403 352.958 131.028 359 126.278V135.903C353.375 139.986 345.938 142.028 336.688 142.028C327.646 142.028 320.542 139.132 315.375 133.34C310.208 127.507 307.625 119.319 307.625 108.778C307.625 98.8195 310.438 90.7153 316.062 84.4653C321.729 78.1737 328.75 75.0278 337.125 75.0278C345.5 75.0278 351.979 77.7362 356.562 83.1528C361.146 88.5695 363.438 96.0903 363.438 105.715V111.09ZM352.938 102.403C352.896 96.4862 351.458 91.882 348.625 88.5903C345.833 85.2987 341.938 83.6528 336.938 83.6528C332.104 83.6528 328 85.382 324.625 88.8403C321.25 92.2987 319.167 96.8195 318.375 102.403H352.938ZM429.938 76.5278L400.5 150.778C395.25 164.028 387.875 170.653 378.375 170.653C375.708 170.653 373.479 170.382 371.688 169.84V160.653C373.896 161.403 375.917 161.778 377.75 161.778C382.917 161.778 386.792 158.694 389.375 152.528L394.5 140.403L369.5 76.5278H380.875L398.188 125.778C398.396 126.403 398.833 128.028 399.5 130.653H399.875C400.083 129.653 400.5 128.069 401.125 125.903L419.312 76.5278H429.938Z" fill="#6B6B6B"/>
<path d="M22.25 104.125V138H11.75V48.375H36.375C45.9583 48.375 53.375 50.7083 58.625 55.375C63.9167 60.0417 66.5625 66.625 66.5625 75.125C66.5625 83.625 63.625 90.5833 57.75 96C51.9167 101.417 44.0208 104.125 34.0625 104.125H22.25ZM22.25 57.875V94.625H33.25C40.5 94.625 46.0208 92.9792 49.8125 89.6875C53.6458 86.3542 55.5625 81.6667 55.5625 75.625C55.5625 63.7917 48.5625 57.875 34.5625 57.875H22.25ZM104.125 139.5C94.6667 139.5 87.1042 136.521 81.4375 130.562C75.8125 124.562 73 116.625 73 106.75C73 96 75.9375 87.6042 81.8125 81.5625C87.6875 75.5208 95.625 72.5 105.625 72.5C115.167 72.5 122.604 75.4375 127.938 81.3125C133.312 87.1875 136 95.3333 136 105.75C136 115.958 133.104 124.146 127.312 130.312C121.562 136.438 113.833 139.5 104.125 139.5ZM104.875 81.125C98.2917 81.125 93.0833 83.375 89.25 87.875C85.4167 92.3333 83.5 98.5 83.5 106.375C83.5 113.958 85.4375 119.938 89.3125 124.312C93.1875 128.688 98.375 130.875 104.875 130.875C111.5 130.875 116.583 128.729 120.125 124.438C123.708 120.146 125.5 114.042 125.5 106.125C125.5 98.125 123.708 91.9583 120.125 87.625C116.583 83.2917 111.5 81.125 104.875 81.125ZM162.625 138H152.375V43.25H162.625V138ZM234.312 74L204.875 148.25C199.625 161.5 192.25 168.125 182.75 168.125C180.083 168.125 177.854 167.854 176.062 167.312V158.125C178.271 158.875 180.292 159.25 182.125 159.25C187.292 159.25 191.167 156.167 193.75 150L198.875 137.875L173.875 74H185.25L202.562 123.25C202.771 123.875 203.208 125.5 203.875 128.125H204.25C204.458 127.125 204.875 125.542 205.5 123.375L223.688 74H234.312ZM298.5 138H284.125L255.875 107.25H255.625V138H245.375V43.25H255.625V103.312H255.875L282.75 74H296.188L266.5 104.875L298.5 138ZM360.438 108.562H315.25C315.417 115.688 317.333 121.188 321 125.062C324.667 128.938 329.708 130.875 336.125 130.875C343.333 130.875 349.958 128.5 356 123.75V133.375C350.375 137.458 342.938 139.5 333.688 139.5C324.646 139.5 317.542 136.604 312.375 130.812C307.208 124.979 304.625 116.792 304.625 106.25C304.625 96.2917 307.438 88.1875 313.062 81.9375C318.729 75.6458 325.75 72.5 334.125 72.5C342.5 72.5 348.979 75.2083 353.562 80.625C358.146 86.0417 360.438 93.5625 360.438 103.188V108.562ZM349.938 99.875C349.896 93.9583 348.458 89.3542 345.625 86.0625C342.833 82.7708 338.938 81.125 333.938 81.125C329.104 81.125 325 82.8542 321.625 86.3125C318.25 89.7708 316.167 94.2917 315.375 99.875H349.938ZM426.938 74L397.5 148.25C392.25 161.5 384.875 168.125 375.375 168.125C372.708 168.125 370.479 167.854 368.688 167.312V158.125C370.896 158.875 372.917 159.25 374.75 159.25C379.917 159.25 383.792 156.167 386.375 150L391.5 137.875L366.5 74H377.875L395.188 123.25C395.396 123.875 395.833 125.5 396.5 128.125H396.875C397.083 127.125 397.5 125.542 398.125 123.375L416.312 74H426.938Z" fill="white"/>
</svg>
